<svg width="662" height="521" viewBox="0 0 662 521" fill="none" xmlns="http://www.w3.org/2000/svg">
<path d="M241.101 224.191C238.19 209.21 241.101 185.115 241.101 185.115C241.101 185.115 274.624 185.812 280.91 185.115C287.196 184.417 291.386 180.23 291.386 172.554C291.386 164.879 285.101 159.994 280.91 159.296C276.72 158.599 241.101 159.296 241.101 159.296V125.105H280.91C286.497 125.105 291.386 118.726 291.386 113.242C291.386 107.758 287.894 99.9844 280.91 99.9844H241.101C241.101 99.9844 240.08 87.162 241.101 79.0507C243.192 62.432 247.721 53.1167 257.164 39.2768C262.931 30.8249 266.687 26.1996 274.624 19.7387C281.551 14.1006 285.956 11.3647 294.18 7.87634C301.733 4.67271 306.345 3.66677 314.434 2.29403C327.879 0.0124563 335.949 -0.205985 349.355 2.29403C356.905 3.70205 361.159 4.83805 368.212 7.87634C376.416 11.4105 380.783 14.1723 387.767 19.7387C395.914 26.2318 399.965 30.7362 405.926 39.2768C415.516 53.0154 419.898 62.432 421.99 79.0507C423.01 87.162 421.99 99.9844 421.99 99.9844C421.99 99.9844 391.958 99.2864 384.275 99.9844C376.593 100.682 373.101 107.347 373.101 113.242C373.101 119.137 377.291 124.031 384.275 125.105C391.259 126.178 421.99 125.105 421.99 125.105V159.296H384.275C377.291 159.296 373.522 165.504 373.101 171.159C372.629 177.497 376.593 185.115 384.275 185.115H421.99C421.99 185.115 424.901 209.21 421.99 224.191C418.891 240.138 415.426 249.385 405.926 262.569C399.953 270.858 395.805 275.097 387.767 281.409C380.743 286.926 376.348 289.585 368.212 293.272C361.142 296.475 356.954 297.97 349.355 299.552C336.004 302.331 327.832 302.091 314.434 299.552C306.297 298.01 301.747 296.635 294.18 293.272C286.017 289.643 281.59 286.999 274.624 281.409C266.799 275.131 262.942 270.768 257.164 262.569C247.803 249.286 244.2 240.138 241.101 224.191Z" fill="url(#paint0_linear_2264_586)"/>
<path fill-rule="evenodd" clip-rule="evenodd" d="M109.101 67.1883H0.84668L65.1006 183.719C97.2257 242.864 146.117 335.837 146.117 335.837L175.45 389.217C179.475 396.543 183.863 404.769 188.012 412.549C195.671 426.907 202.518 439.745 204.783 442.598C205.837 443.925 207.35 445.907 209.176 448.297C213.401 453.828 219.299 461.55 225.037 468.416C226.397 470.044 227.588 471.506 228.705 472.878C231.965 476.881 234.601 480.118 239.005 484.465C243.404 488.807 246.045 491.079 250.878 494.932C254.844 498.094 257.122 499.814 261.355 502.608L261.453 502.673C267.404 506.602 270.829 508.863 277.418 511.679C283.207 514.154 286.65 515.14 292.783 516.564C297.291 517.61 300.018 517.964 304.347 518.526C304.673 518.568 305.009 518.612 305.355 518.657C311.868 519.507 315.556 519.73 322.117 520.053C331.651 520.522 337.041 520.764 346.561 520.053L347.133 520.01C354.745 519.442 359.245 519.106 366.815 517.262C374.504 515.388 378.717 513.576 385.839 510.512L386.37 510.284C393.093 507.393 396.805 505.584 403.132 501.91C410.262 497.771 414.126 495.159 420.593 490.048C425.744 485.976 428.438 483.441 433.164 478.883C434.253 477.833 435.256 476.891 436.201 476.004C439.713 472.707 442.42 470.165 445.736 465.625C449.685 460.218 454.117 450.668 454.117 450.668C453.202 451.786 452.268 452.829 451.323 453.763C446.899 458.131 438.751 463.532 438.751 463.532C438.751 463.532 429.03 469.909 421.99 471.905C414.46 474.04 409.677 473.777 402.138 473.361C401.777 473.341 401.411 473.321 401.037 473.301C392.17 472.819 387.028 472.161 378.688 469.114C370.776 466.224 366.339 463.991 359.831 458.647C355.571 455.15 350.053 448.878 350.053 448.878C350.053 448.878 345.668 444.159 343.069 441.203C335.68 432.799 332.462 427.246 327.005 417.478C320.216 405.324 313.037 388.869 313.037 384.682V335.837C313.037 335.837 299.623 333.652 291.386 330.952C274.092 325.284 264.924 319.49 250.878 307.925C235.787 295.499 228.005 286.76 218.751 269.547C206.824 247.361 205.6 231.885 204.085 206.746C203.544 197.77 204.085 183.719 204.085 183.719C204.085 183.719 181.037 144.643 162.18 107.66C143.323 70.6773 109.101 67.1883 109.101 67.1883Z" fill="url(#paint1_linear_2264_586)"/>
<path d="M359.831 458.647C366.339 463.991 370.776 466.224 378.688 469.114C387.028 472.161 392.17 472.819 401.037 473.301C401.411 473.321 401.777 473.341 402.138 473.361C409.677 473.777 414.46 474.04 421.99 471.905C429.03 469.909 438.751 463.532 438.751 463.532C438.751 463.532 446.899 458.131 451.323 453.763C452.268 452.829 453.202 451.786 454.117 450.668C461.794 441.275 468.085 426.549 468.085 426.549L503.704 360.957L547.704 279.316L593.799 191.395L639.894 106.264L660.847 67.1883H553.291C553.291 67.1883 519.767 70.6773 499.513 107.66C479.259 144.643 458.307 183.719 458.307 183.719C458.307 183.719 458.824 197.768 458.307 206.746L458.288 207.073C456.855 231.963 455.966 247.394 444.339 269.547C435.337 286.697 427.824 295.557 412.91 307.925C398.723 319.691 389.241 325.265 371.704 330.952C363.459 333.626 350.053 335.837 350.053 335.837V384.682V448.878C350.053 448.878 355.571 455.15 359.831 458.647Z" fill="url(#paint2_linear_2264_586)"/>
<path d="M313.037 384.682C313.037 380.495 313.037 335.837 313.037 335.837C313.037 335.837 299.623 333.652 291.386 330.952C274.092 325.284 264.924 319.49 250.878 307.925C235.787 295.499 228.005 286.76 218.751 269.547C206.824 247.361 205.6 231.885 204.085 206.746C203.544 197.77 204.085 183.719 204.085 183.719C204.085 183.719 181.037 144.643 162.18 107.66C143.323 70.6773 109.101 67.1883 109.101 67.1883H0.84668L65.1006 183.719C97.2257 242.864 146.117 335.837 146.117 335.837C146.117 335.837 163.994 368.371 175.45 389.217M313.037 335.837V384.682M313.037 384.682C313.037 388.869 320.216 405.324 327.005 417.478C332.462 427.246 335.68 432.799 343.069 441.203C345.668 444.159 350.053 448.878 350.053 448.878M350.053 448.878V384.682V335.837C350.053 335.837 363.459 333.626 371.704 330.952C389.241 325.265 398.723 319.691 412.91 307.925C427.824 295.557 435.337 286.697 444.339 269.547C455.966 247.394 456.855 231.963 458.288 207.073C458.294 206.964 458.301 206.855 458.307 206.746C458.824 197.768 458.307 183.719 458.307 183.719C458.307 183.719 479.259 144.643 499.513 107.66C519.767 70.6773 553.291 67.1883 553.291 67.1883H660.847L639.894 106.264L593.799 191.395L547.704 279.316L503.704 360.957L468.085 426.549C468.085 426.549 461.794 441.275 454.117 450.668C453.202 451.786 452.268 452.829 451.323 453.763C446.899 458.131 438.751 463.532 438.751 463.532C438.751 463.532 429.03 469.909 421.99 471.905C414.46 474.04 409.677 473.777 402.138 473.361C401.777 473.341 401.411 473.321 401.037 473.301C392.17 472.819 387.028 472.161 378.688 469.114C370.776 466.224 366.339 463.991 359.831 458.647C355.571 455.15 350.053 448.878 350.053 448.878ZM458.307 206.746L458.288 207.073M384.275 185.115H421.99C421.99 185.115 424.901 209.21 421.99 224.191C418.891 240.138 415.426 249.385 405.926 262.569C399.953 270.858 395.805 275.097 387.767 281.409C380.743 286.926 376.348 289.585 368.212 293.272C361.142 296.475 356.954 297.97 349.355 299.552C336.004 302.331 327.832 302.091 314.434 299.552C306.297 298.01 301.747 296.635 294.18 293.272C286.017 289.643 281.59 286.999 274.624 281.409C266.799 275.131 262.942 270.768 257.164 262.569C247.803 249.286 244.2 240.138 241.101 224.191C238.19 209.21 241.101 185.115 241.101 185.115C241.101 185.115 274.624 185.812 280.91 185.115C287.196 184.417 291.386 180.23 291.386 172.554C291.386 164.879 285.101 159.994 280.91 159.296C276.72 158.599 241.101 159.296 241.101 159.296V125.105C241.101 125.105 275.323 125.105 280.91 125.105M421.99 185.115C421.99 185.115 391.958 185.115 384.275 185.115M384.275 185.115C376.593 185.115 372.629 177.497 373.101 171.159C373.522 165.504 377.291 159.296 384.275 159.296M280.91 125.105C286.497 125.105 291.386 118.726 291.386 113.242C291.386 107.758 287.894 99.9844 280.91 99.9844H241.101C241.101 99.9844 240.08 87.162 241.101 79.0507C243.192 62.432 247.721 53.1167 257.164 39.2768C262.931 30.8249 266.687 26.1996 274.624 19.7387C281.551 14.1006 285.956 11.3647 294.18 7.87634C301.733 4.67271 306.345 3.66677 314.434 2.29403C327.879 0.0124563 335.949 -0.205985 349.355 2.29403C356.905 3.70205 361.159 4.83805 368.212 7.87634C376.416 11.4105 380.783 14.1723 387.767 19.7387C395.914 26.2318 399.965 30.7362 405.926 39.2768C415.516 53.0154 419.898 62.432 421.99 79.0507C423.01 87.162 421.99 99.9844 421.99 99.9844C421.99 99.9844 391.958 99.2864 384.275 99.9844C376.593 100.682 373.101 107.347 373.101 113.242C373.101 119.137 377.291 124.031 384.275 125.105C391.259 126.178 421.99 125.105 421.99 125.105V159.296C421.99 159.296 391.259 159.296 384.275 159.296M384.275 159.296H421.99M280.91 125.105H241.101M261.355 502.608C257.122 499.814 254.844 498.094 250.878 494.932C246.045 491.079 243.404 488.807 239.005 484.465C234.601 480.118 231.965 476.881 228.705 472.878C227.588 471.506 226.397 470.044 225.037 468.416C219.299 461.55 213.401 453.828 209.176 448.297C207.35 445.907 205.837 443.925 204.783 442.598C202.518 439.745 195.671 426.907 188.012 412.549C183.863 404.769 179.475 396.543 175.45 389.217L146.117 335.837M261.355 502.608L261.453 502.673M346.561 520.053C337.041 520.764 331.651 520.522 322.117 520.053C315.556 519.73 311.868 519.507 305.355 518.657C305.009 518.612 304.673 518.568 304.347 518.526C300.018 517.964 297.291 517.61 292.783 516.564C286.65 515.14 283.207 514.154 277.418 511.679C270.829 508.863 267.404 506.602 261.453 502.673C261.42 502.651 261.388 502.63 261.355 502.608M346.561 520.053L347.133 520.01M346.561 520.053C346.754 520.038 346.944 520.024 347.133 520.01M347.133 520.01C354.745 519.442 359.245 519.106 366.815 517.262C374.504 515.388 378.717 513.576 385.839 510.512C386.015 510.437 386.192 510.361 386.37 510.284C393.093 507.393 396.805 505.584 403.132 501.91C410.262 497.771 414.126 495.159 420.593 490.048C425.744 485.976 428.438 483.441 433.164 478.883C434.253 477.833 435.256 476.891 436.201 476.004C439.713 472.707 442.42 470.165 445.736 465.625C449.685 460.218 454.117 450.668 454.117 450.668M386.37 510.284L385.839 510.512" stroke="url(#paint3_linear_2264_586)"/>
<defs>
<linearGradient id="paint0_linear_2264_586" x1="579.831" y1="508.19" x2="95.5735" y2="15.1186" gradientUnits="userSpaceOnUse">
<stop offset="0.153846" stop-color="#0056AC"/>
<stop offset="0.581731" stop-color="#0088FF"/>
</linearGradient>
<linearGradient id="paint1_linear_2264_586" x1="579.831" y1="508.19" x2="95.5735" y2="15.1186" gradientUnits="userSpaceOnUse">
<stop offset="0.153846" stop-color="#0056AC"/>
<stop offset="0.581731" stop-color="#0088FF"/>
</linearGradient>
<linearGradient id="paint2_linear_2264_586" x1="579.831" y1="508.19" x2="95.5735" y2="15.1186" gradientUnits="userSpaceOnUse">
<stop offset="0.298077" stop-color="#0056AC"/>
<stop offset="0.860577" stop-color="#0088FF"/>
</linearGradient>
<linearGradient id="paint3_linear_2264_586" x1="595.196" y1="520.053" x2="90.6953" y2="15.1005" gradientUnits="userSpaceOnUse">
<stop offset="0.173077" stop-color="#0056AC"/>
<stop offset="0.793269" stop-color="#0088FF"/>
</linearGradient>
</defs>
</svg>
